{"title":"The.Simpsons.1-26.Seasons.1989-2014.Xvid.ENG.RUS.(2x2).HDRip","uid":12622024,"size":160896751838,"categoryP":"video","categoryS":"tv_shows","magnet":"?xt=urn:btih:6869b9f8e9cb6f43869c6d4dd8ccc07e9f199502&amp;dn=The.Simpsons.1-26.Seasons.1989-2014.Xvid.ENG.RUS.%282x2%29.HDRip&amp;tr=udp%3A%2F%2Ftracker.leechers-paradise.org%3A6969&amp;tr=udp%3A%2F%2Fzer0day.ch%3A1337&amp;tr=udp%3A%2F%2Fopen.demonii.com%3A1337&amp;tr=udp%3A%2F%2Ftracker.coppersurfer.tk%3A6969&amp;tr=udp%3A%2F%2Fexodus.desync.com%3A6969","seeders":0,"leechers":2,"uploader":"niif111","files":574,"time":1445613967,"description":"Format                                   : AVI\r\nFormat/Info                              : Audio Video Interleave\r\nFile size                                : 272 MiB\r\nDuration                                 : 21mn 12s\r\nOverall bit rate                         : 1 792 Kbps\r\nWriting application                      : XviD4PSP 7.0 / 56.15.102\r\n\r\nVideo\r\nID                                       : 0\r\nFormat                                   : MPEG-4 Visual\r\nFormat profile                           : Advanced   \r\nFormat settings, BVOP                    : 1\r\nFormat settings, QPel                    : No\r\nFormat settings, GMC                     : No warppoints\r\nFormat settings, Matrix                  : Default (H.263)\r\nCodec ID                                 : XVID\r\nCodec ID/Hint                            : XviD\r\nDuration                                 : 21mn 12s\r\nBit rate                                 : 1 200 Kbps\r\nWidth                                    : 720 pixels\r\nHeight                                   : 400 pixels\r\nDisplay aspect ratio                     : 16:9\r\nFrame rate                               : 23.976 fps\r\nColor space                              : YUV\r\nChroma subsampling                       : 4:2:0\r\nBit depth                                : 8 bits\r\nScan type                                : Progressive\r\nCompression mode                         : Lossy\r\nBits/(Pixel*Frame)                       : 0.174\r\nStream size                              : 182 MiB (67%)\r\nTitle                                    : Original\r\nWriting library                          : XviD 64\r\n\r\nAudio #1\r\nID                                       : 1\r\nFormat                                   : AC-3\r\nFormat/Info                              : Audio Coding 3\r\nMode extension                           : CM (complete main)\r\nFormat settings, Endianness              : Big\r\nCodec ID                                 : 2000\r\nDuration                                 : 21mn 11s\r\nBit rate mode                            : Constant\r\nBit rate                                 : 192 Kbps\r\nChannel(s)                               : 2 channels\r\nChannel positions                        : Front: L R\r\nSampling rate                            : 48.0 KHz\r\nBit depth                                : 16 bits\r\nCompression mode                         : Lossy\r\nStream size                              : 29.1 MiB (11%)\r\nAlignment                                : Aligned on interleaves\r\nInterleave, duration                     : 32 ms (0.77 video frame)\r\nTitle                                    : 2x2\r\n\r\nAudio #2\r\nID                                       : 2\r\nFormat                                   : AC-3\r\nFormat/Info                              : Audio Coding 3\r\nMode extension                           : CM (complete main)\r\nFormat settings, Endianness              : Big\r\nCodec ID                                 : 2000\r\nDuration                                 : 21mn 12s\r\nBit rate mode                            : Constant\r\nBit rate                                 : 384 Kbps\r\nChannel(s)                               : 6 channels\r\nChannel positions                        : Front: L C R, Side: L R, LFE\r\nSampling rate                            : 48.0 KHz\r\nBit depth                                : 16 bits\r\nCompression mode                         : Lossy\r\nStream size                              : 58.2 MiB (21%)\r\nAlignment                                : Aligned on interleaves\r\nInterleave, duration                     : 32 ms (0.77 video frame)\r\nTitle                                    : Original","torrent":{"xt":"urn:btih:6869b9f8e9cb6f43869c6d4dd8ccc07e9f199502","amp;dn":"The.Simpsons.1-26.Seasons.1989-2014.Xvid.ENG.RUS.%282x2%29.HDRip","amp;tr":["udp%3A%2F%2Ftracker.leechers-paradise.org%3A6969","udp%3A%2F%2Fzer0day.ch%3A1337","udp%3A%2F%2Fopen.demonii.com%3A1337","udp%3A%2F%2Ftracker.coppersurfer.tk%3A6969","udp%3A%2F%2Fexodus.desync.com%3A6969"],"infoHash":"6869b9f8e9cb6f43869c6d4dd8ccc07e9f199502","infoHashBuffer":{"type":"Buffer","data":[104,105,185,248,233,203,111,67,134,156,109,77,216,204,192,126,159,25,149,2]},"announce":[],"urlList":[]}}